<?xml version="1.0" encoding="UTF-8"?>
<svg id="Layer_2" data-name="Layer 2" xmlns="http://www.w3.org/2000/svg" viewBox="0 0 264 180.68">
  <defs>
    <style>
      .cls-1 {
        fill: #231f20;
      }
    </style>
  </defs>
  <g id="Layer_1-2" data-name="Layer 1">
    <g>
      <g>
        <polygon points="10.56 177.09 8.69 170.24 7.02 170.24 5.15 177.08 3.33 170.24 1.4 170.24 4.3 180.5 5.98 180.5 7.86 173.67 9.73 180.5 11.41 180.5 14.31 170.24 12.38 170.24 10.56 177.09"/>
        <polygon points="18.22 176.06 23.54 176.06 23.54 174.35 18.22 174.35 18.22 171.94 23.84 171.94 23.84 170.24 16.45 170.24 16.45 180.5 24.06 180.5 24.06 178.8 18.22 178.8 18.22 176.06"/>
        <path d="M40.43,176.73c-.15.73-.49,1.3-.98,1.68-.49.36-1.05.54-1.71.54-.94,0-1.65-.32-2.18-.97-.51-.63-.77-1.5-.77-2.58s.26-1.94.79-2.61c.54-.68,1.28-1.02,2.24-1.02.63,0,1.19.17,1.65.49.46.32.73.76.83,1.34l.07.42h1.75l-.07-.56c-.13-1.04-.61-1.89-1.43-2.51-.77-.61-1.7-.91-2.79-.91-1.55,0-2.77.56-3.63,1.65-.79.98-1.18,2.23-1.18,3.7s.39,2.71,1.16,3.66c.87,1.07,2.07,1.61,3.58,1.61,1.05,0,2-.31,2.8-.94.85-.68,1.39-1.63,1.61-2.82l.11-.59h-1.76l-.08.4Z"/>
        <path d="M52.64,178.59l-.13-1.4c-.08-.73-.37-1.29-.87-1.67.2-.15.38-.33.54-.54.35-.5.52-1.07.52-1.7,0-.96-.32-1.73-.95-2.27-.59-.51-1.42-.77-2.45-.77h-4.36v10.26h1.78v-4.11h2.51c.48,0,.86.09,1.11.26.24.16.38.45.41.86l.12,1.28c.06.62.2,1.1.43,1.47l.15.24h2.14l-.6-.8c-.19-.25-.3-.61-.35-1.11ZM46.73,171.94h2.49c.64,0,1.09.12,1.35.35.24.22.36.55.36,1.02,0,.43-.12.74-.37.97-.31.27-.74.41-1.33.41h-2.5v-2.75Z"/>
        <polygon points="57.53 176.06 62.84 176.06 62.84 174.35 57.53 174.35 57.53 171.94 63.14 171.94 63.14 170.24 55.75 170.24 55.75 180.5 63.36 180.5 63.36 178.8 57.53 178.8 57.53 176.06"/>
        <path d="M69.02,170.24l-4.05,10.26h1.93l1.06-2.76h3.71l1.06,2.76h1.93l-4.05-10.26h-1.6ZM68.61,176.06l1.21-3.13,1.21,3.13h-2.42Z"/>
        <polygon points="75.96 171.94 79.31 171.94 79.31 180.5 81.09 180.5 81.09 171.94 84.44 171.94 84.44 170.24 75.96 170.24 75.96 171.94"/>
        <polygon points="88.68 176.06 93.99 176.06 93.99 174.35 88.68 174.35 88.68 171.94 94.3 171.94 94.3 170.24 86.9 170.24 86.9 180.5 94.51 180.5 94.51 178.8 88.68 178.8 88.68 176.06"/>
        <path d="M110.66,175.08c.12-.11.23-.22.34-.35.37-.47.55-1.03.55-1.67,0-.88-.3-1.58-.9-2.09-.57-.48-1.34-.73-2.29-.73h-4.51v10.26h4.47c1.01,0,1.83-.22,2.46-.67.75-.54,1.14-1.36,1.14-2.39,0-.73-.22-1.36-.66-1.87-.18-.19-.38-.36-.61-.49ZM108.21,171.93c.54,0,.95.11,1.21.3.24.19.36.5.36.91s-.12.7-.37.91c-.27.22-.69.33-1.21.33h-2.56v-2.45h2.58ZM105.63,176.05h2.65c.62,0,1.08.12,1.41.36.3.22.46.55.46,1.02s-.16.81-.49,1.05c-.33.22-.79.33-1.36.33h-2.67v-2.76Z"/>
        <polygon points="116.48 176.06 121.8 176.06 121.8 174.35 116.48 174.35 116.48 171.94 122.1 171.94 122.1 170.24 114.71 170.24 114.71 180.5 122.32 180.5 122.32 178.8 116.48 178.8 116.48 176.06"/>
        <path d="M127.98,170.24l-4.05,10.26h1.93l1.06-2.76h3.71l1.06,2.76h1.93l-4.05-10.26h-1.6ZM127.57,176.06l1.21-3.13,1.21,3.13h-2.42Z"/>
        <path d="M141.95,176.42c0,.86-.18,1.51-.52,1.92-.37.42-.94.63-1.75.63s-1.39-.21-1.75-.63c-.34-.4-.52-1.05-.52-1.92v-6.18h-1.78v6.18c0,1.35.33,2.37,1,3.11.69.76,1.72,1.15,3.05,1.15s2.37-.39,3.07-1.17c.65-.74.98-1.78.98-3.09v-6.18h-1.78v6.18Z"/>
        <polygon points="146.19 171.94 149.54 171.94 149.54 180.5 151.31 180.5 151.31 171.94 154.66 171.94 154.66 170.24 146.19 170.24 146.19 171.94"/>
        <rect x="157.24" y="170.24" width="1.78" height="10.26"/>
        <polygon points="162.29 180.5 164.07 180.5 164.07 176.08 169.07 176.08 169.07 174.38 164.07 174.38 164.07 171.94 169.34 171.94 169.34 170.24 162.29 170.24 162.29 180.5"/>
        <path d="M178.25,176.42c0,.86-.18,1.51-.52,1.92-.37.42-.94.63-1.75.63s-1.39-.21-1.75-.63c-.34-.4-.52-1.05-.52-1.92v-6.18h-1.78v6.18c0,1.35.33,2.37,1,3.11.69.76,1.72,1.15,3.05,1.15s2.37-.39,3.07-1.17c.65-.74.98-1.78.98-3.09v-6.18h-1.78v6.18Z"/>
        <polygon points="184.97 170.24 183.19 170.24 183.19 180.5 190.45 180.5 190.45 178.8 184.97 178.8 184.97 170.24"/>
        <path d="M203.73,170.24h-4.2v10.26h1.78v-3.93h2.41c2.29,0,3.55-1.13,3.55-3.17,0-1.44-.61-3.16-3.54-3.16ZM201.3,171.94h2.38c.65,0,1.13.13,1.42.38.25.22.38.58.38,1.08s-.13.88-.37,1.1c-.29.25-.78.37-1.43.37h-2.38v-2.93Z"/>
        <polygon points="211.7 170.24 209.92 170.24 209.92 180.5 217.18 180.5 217.18 178.8 211.7 178.8 211.7 170.24"/>
        <path d="M222.59,170.24l-4.05,10.26h1.93l1.06-2.76h3.71l1.06,2.76h1.93l-4.05-10.26h-1.6ZM222.18,176.06l1.22-3.13,1.21,3.13h-2.42Z"/>
        <path d="M237.27,176.73c-.15.73-.49,1.3-.98,1.68-.49.36-1.05.54-1.71.54-.95,0-1.66-.32-2.18-.97-.51-.63-.77-1.5-.77-2.58s.26-1.94.79-2.61c.54-.68,1.28-1.02,2.24-1.02.64,0,1.19.17,1.65.49.46.33.73.76.83,1.34l.07.42h1.74l-.07-.56c-.13-1.04-.61-1.89-1.42-2.51-.77-.61-1.71-.91-2.79-.91-1.55,0-2.77.56-3.63,1.65-.79.98-1.18,2.23-1.18,3.7s.39,2.71,1.16,3.66c.87,1.07,2.07,1.61,3.58,1.61,1.06,0,2-.31,2.8-.94.86-.68,1.4-1.63,1.61-2.82l.11-.59h-1.76l-.08.4Z"/>
        <polygon points="243.57 176.06 248.88 176.06 248.88 174.35 243.57 174.35 243.57 171.94 249.19 171.94 249.19 170.24 241.79 170.24 241.79 180.5 249.41 180.5 249.41 178.8 243.57 178.8 243.57 176.06"/>
        <path d="M258.41,175.26c-.45-.28-1.21-.57-2.48-.94-1.16-.33-1.57-.52-1.65-.55-.53-.29-.59-.57-.59-.79,0-.42.14-.69.48-.88.34-.21.84-.32,1.48-.32.68,0,1.17.14,1.51.44.34.3.55.74.63,1.34l.06.43h1.76l-.05-.54c-.09-1.09-.49-1.94-1.2-2.52-.68-.57-1.58-.86-2.7-.86-1.03,0-1.89.23-2.54.68-.8.52-1.21,1.28-1.21,2.26s.45,1.69,1.29,2.17c.22.13.68.35,2.22.79,1.29.36,1.75.58,1.89.67.46.27.68.6.68,1.04,0,.37-.17.66-.51.89-.43.27-1,.4-1.69.4s-1.27-.15-1.63-.45c-.41-.34-.64-.87-.72-1.61l-.04-.45h-1.75l.04.53c.09,1.26.54,2.23,1.34,2.87.69.55,1.63.84,2.79.84s2.07-.25,2.78-.75c.78-.56,1.19-1.35,1.19-2.3,0-1.01-.48-1.83-1.37-2.37Z"/>
      </g>
      <g>
        <path class="cls-1" d="M6.07,30.14h-3.44c-1.66,0-2.47.87-2.47,2.67v11.33c0,1.78.81,2.65,2.47,2.65h3.44c4.49,0,7.28-3.26,7.28-8.5s-2.72-8.16-7.28-8.16ZM10.43,38.32c0,3.64-1.62,5.73-4.46,5.73h-2.94s-.03-.05-.03-.18v-10.83c0-.15.05-.16.14-.16h2.89c3.64,0,4.4,2.96,4.4,5.45Z"/>
        <path class="cls-1" d="M48.13,44.05h-6.91c-.13,0-.19-.03-.2-.03,0,0-.02-.03-.02-.11v-4.44h6.08c.71,0,1.25-.58,1.25-1.34s-.52-1.36-1.25-1.36h-6.08v-3.66c0-.13.02-.18.02-.19.01,0,.05-.02.14-.02h6.79c.75,0,1.27-.57,1.27-1.38s-.52-1.36-1.27-1.36h-7.3c-1.66,0-2.47.87-2.47,2.67v11.33c0,1.78.81,2.65,2.47,2.65h7.47c.74,0,1.27-.58,1.27-1.38s-.52-1.36-1.27-1.36Z"/>
        <path class="cls-1" d="M80.15,36.95l-1.43-.3c-2.06-.42-2.44-1.05-2.44-2.14,0-1.23,1.06-1.99,2.76-1.99,1.55,0,2.43.6,2.79,1.94.21.57.7.91,1.32.91.17,0,.32-.03.43-.05.65-.14,1.11-.67,1.11-1.29,0-.16-.03-.32-.08-.44-.41-1.39-1.68-3.74-5.58-3.74-4.16,0-5.63,2.51-5.63,4.66,0,2.77,1.33,4.19,4.6,4.89l1.55.34c2.32.49,2.75,1.18,2.75,2.36,0,1.46-1.15,2.33-3.07,2.33-2.47,0-3-1.22-3.32-2.49-.16-.59-.68-.97-1.33-.97-.13,0-.25.02-.45.05-.68.17-1.11.69-1.11,1.33,0,.1.02.2.06.4.37,1.3,1.24,4.36,6.25,4.36,3.56,0,5.87-1.98,5.87-5.04,0-3.34-2.02-4.46-5.05-5.13Z"/>
        <path class="cls-1" d="M111.34,30.02c-.84,0-1.41.53-1.41,1.32v14.25c0,.79.56,1.32,1.41,1.32s1.45-.53,1.45-1.32v-14.25c0-.79-.58-1.32-1.45-1.32Z"/>
        <path class="cls-1" d="M149.03,37.78h-3.11c-.76,0-1.27.56-1.27,1.38s.5,1.34,1.27,1.34h2.53s0,.04,0,.06v.44c0,2.19-1.75,3.34-3.48,3.34-2.7,0-4.38-2.25-4.38-5.87s1.65-5.89,4.31-5.89c1.54,0,2.55.66,3.17,2.09.32.74,1.07,1.03,1.91.71.56-.22.92-.72.92-1.27,0-.23-.04-.42-.14-.63-.61-1.36-2.19-3.65-5.88-3.65-4.32,0-7.22,3.46-7.22,8.62s2.86,8.64,7.27,8.64c1.3,0,2.6-.45,3.54-1.2.04.7.56,1.16,1.33,1.16s1.31-.54,1.31-1.36v-5.67c0-1.51-.68-2.25-2.08-2.25Z"/>
        <path class="cls-1" d="M187.47,30.02c-.87,0-1.43.52-1.43,1.32v6.09c0,1.6.06,3.2.13,4.51-.45-.87-.93-1.77-1.36-2.5l-4.87-8.22c-.37-.61-.83-1.21-1.99-1.21-1.03,0-1.72.69-1.72,1.71v13.87c0,.79.57,1.32,1.43,1.32s1.41-.53,1.41-1.32v-6.17c0-1.57-.04-3.16-.11-4.51.36.7.74,1.41,1.09,1.99l5.12,8.62c.49.81.92,1.39,2.05,1.39,1.02,0,1.66-.68,1.66-1.77v-13.81c0-.8-.55-1.32-1.41-1.32Z"/>
        <path class="cls-1" d="M224.34,44.05h-6.91c-.13,0-.19-.03-.2-.03,0,0-.02-.03-.02-.11v-4.44h6.08c.71,0,1.25-.58,1.25-1.34s-.52-1.36-1.25-1.36h-6.08v-3.66c0-.13.02-.18.02-.19.01,0,.05-.02.14-.02h6.79c.75,0,1.27-.57,1.27-1.38s-.52-1.36-1.27-1.36h-7.29c-1.66,0-2.47.87-2.47,2.67v11.33c0,1.78.81,2.65,2.47,2.65h7.47c.74,0,1.27-.58,1.27-1.38s-.52-1.36-1.27-1.36Z"/>
        <path class="cls-1" d="M262.47,45.04l-.48-1.17c-1.08-2.84-1.71-4.36-2.51-5.15,1.55-.71,2.38-2.12,2.38-4.06,0-2.83-1.81-4.52-4.84-4.52h-4.52c-1.66,0-2.47.87-2.47,2.67v12.74c0,.82.57,1.36,1.43,1.36s1.39-.54,1.39-1.34v-5.81h3.05c1.54,0,2.01,1.12,3.39,5.02l.48,1.28c.2.53.65.85,1.22.85.19,0,.39-.03.55-.08.61-.16,1.01-.66,1.01-1.27,0-.17-.03-.32-.09-.53ZM259.02,34.95c0,1.34-.85,2.17-2.22,2.17h-3.94v-4.1c0-.14.03-.19.03-.19,0,0,.03-.02.11-.02h3.92c1.44,0,2.11.68,2.11,2.13Z"/>
      </g>
      <g>
        <path class="cls-1" d="M101.44.12h-10.64c-.7,0-1.23.6-1.23,1.4s.53,1.36,1.25,1.36h3.88v12.68c0,.78.59,1.32,1.43,1.32s1.43-.54,1.43-1.32V2.89h3.88c.69,0,1.23-.6,1.23-1.36s-.53-1.4-1.23-1.4Z"/>
        <path class="cls-1" d="M138.51,0c-.89,0-1.47.52-1.47,1.32v5.35h-7.22V1.32c0-.79-.57-1.32-1.43-1.32s-1.43.52-1.43,1.32v14.25c0,.79.57,1.32,1.43,1.32s1.43-.54,1.43-1.32v-6.15h7.22v6.15c0,.79.59,1.32,1.47,1.32.82,0,1.39-.54,1.39-1.32V1.32c0-.79-.56-1.32-1.39-1.32Z"/>
        <path class="cls-1" d="M175.35,14.03h-6.91c-.13,0-.19-.03-.2-.03,0,0-.02-.03-.02-.11v-4.44h6.08c.71,0,1.25-.58,1.25-1.34s-.52-1.36-1.25-1.36h-6.08v-3.66c0-.13.02-.18.02-.19.01,0,.05-.02.14-.02h6.79c.75,0,1.27-.57,1.27-1.38s-.52-1.36-1.27-1.36h-7.29c-1.66,0-2.47.87-2.47,2.67v11.33c0,1.78.81,2.65,2.47,2.65h7.47c.74,0,1.27-.58,1.27-1.38s-.52-1.36-1.27-1.36Z"/>
      </g>
      <g>
        <path d="M147.37,108.31c1.29.41,2.76.16,3.85-.82,1.08-.98,1.48-2.41,1.2-3.74-1.3-.41-2.77-.16-3.84.82-1.08.98-1.48,2.41-1.2,3.75Z"/>
        <path d="M146.14,106.22c.31-1.32-.05-2.77-1.11-3.77-1.06-1-2.52-1.29-3.82-.91-.31,1.32.05,2.77,1.11,3.77,1.06,1,2.52,1.29,3.82.91Z"/>
        <path d="M147.93,103.88c1.17-.69,1.97-1.95,1.96-3.41,0-1.46-.81-2.71-1.99-3.39-1.17.69-1.97,1.95-1.96,3.41,0,1.46.81,2.71,1.98,3.39Z"/>
        <path d="M164.5,127.54h-12.19c1.52-1.37,2.48-3.34,2.48-5.53,0-2.75-1.53-5.26-3.9-6.55v-5.41h-7.1v5.41c-2.37,1.29-3.9,3.8-3.9,6.55,0,2.2.96,4.17,2.48,5.53H34.5c-.83,0-1.5.67-1.5,1.5v8.93c0,.83.67,1.5,1.5,1.5h15.61l-4.98,12.91c-.17.17-.27.42-.27.71,0,.52.36.95.8.95s.8-.42.8-.95c0-.03,0-.05,0-.07l7.84-13.54h90.43l7.83,13.54s0,.05,0,.07c0,.52.36.95.8.95s.8-.42.8-.95c0-.28-.11-.53-.27-.71l-4.98-12.91h15.61c.83,0,1.5-.67,1.5-1.5v-8.93c0-.83-.67-1.5-1.5-1.5ZM145.81,117.83l.98-.36v-4.42h1.1v4.42l.98.36c1.75.64,2.92,2.32,2.92,4.17,0,2.46-2,4.45-4.45,4.45s-4.45-2-4.45-4.45c0-1.86,1.17-3.53,2.92-4.17ZM163,136.47H36v-5.93h127v5.93Z"/>
      </g>
      <path class="cls-1" d="M126.46,106.51c-1.53-.25-4.68-.39-6.37-.39-1.01,0-2.01.07-3.01.17.02-.35.04-.71.04-1.06,0-10.42-5.91-19.16-13.81-21.41.61-.92,1.12-1.96,1.51-3.01.85-.43,1.43-1.52,1.54-2.19.12-.72-.15-1.44-.67-1.91,0-.03,0-.07,0-.1,0-3.7-3.02-6.72-6.72-6.72s-6.72,3.01-6.72,6.72v.09c-.53.47-.8,1.19-.68,1.92.11.64.67,1.77,1.55,2.19.41,1.11.96,2.23,1.62,3.18-7.61,2.5-13.24,11.06-13.24,21.23,0,.34.01.68.03,1.02-.9-.08-1.82-.13-2.74-.13-1.67,0-4.79.13-6.32.39l-1.23.21.42,1.17c1.7,4.79,5.23,9.13,9.75,12.42-.55,2.07.1,4.25,1.88,5.89,1.68,1.56,4.15,2.46,6.78,2.46.44,0,.88-.03,1.31-.08h.11s0,.77,0,.77h15.92v-.79h.11c.43.06.87.09,1.31.09h0c2.63,0,5.1-.9,6.78-2.46,1.79-1.67,2.45-3.88,1.85-5.98,4.36-3.23,7.85-7.48,9.8-12.29l.49-1.21-1.29-.21ZM115.04,105.23c0,.45-.02.9-.04,1.35-1.26.22-2.5.51-3.72.89l-.12.05c-1.04.48-2.11.89-3.19,1.23h0c-2.64.83-5.39,1.25-8.19,1.25-.63,0-1.26-.03-1.88-.07,9.36-3.99,13.53-12.1,14.79-15.12,1.48,3.04,2.35,6.6,2.35,10.43ZM111.44,92.56c-.13.12-.24.26-.3.44-.04.13-4.22,12.53-17.22,16.11,10.96-5.27,14.5-15.41,15.47-19.16.75.79,1.44,1.66,2.05,2.61ZM105.32,86.84c.8.42,1.55.93,2.28,1.5-.29,1.45-2.93,12.95-14.12,18.65,9.42-6.73,11.42-16.53,11.84-20.15ZM94.65,78.77l-.66.1c-.14-.15-.31-.45-.33-.62l.8-.26-.08-.84c-.02-.19-.03-.38-.03-.55,0-2.55,2.08-4.63,4.62-4.63,2.37,0,4.3,1.79,4.57,4.09-1.92-.03-3.33.46-4.2,1.48-1.21,1.44-.79,3.31-.77,3.39.1.44.49.73.92.73.07,0,.15,0,.22-.03.51-.12.83-.63.71-1.14,0,0-.21-1.03.37-1.73.47-.56,1.42-.82,2.7-.8v.03s.79.26.79.26c-.02.16-.2.46-.34.6l-.66-.09-.28.83c-.97,2.93-2.68,5.05-4.05,5.05s-3.08-2.13-4.05-5.06l-.28-.83ZM96.34,85.74c.79.63,1.67,1.02,2.64,1.02,1.04,0,1.97-.44,2.8-1.15.51.11,1.02.23,1.52.39-.27,2.82-2.12,14.95-14.43,21.38-.11.06-.2.14-.28.23h-.02s-.16.11-.16.11c-1.54-.53-3.13-.93-4.76-1.2-.03-.43-.04-.86-.04-1.29,0-9.67,5.49-17.72,12.73-19.49ZM74.12,108.41c1.51-.14,3.51-.21,4.68-.21,3.09,0,6.08.51,8.91,1.48l.51.19c3.04,1.12,5.88,2.8,8.34,4.92-.7.71-1.27,1.51-1.7,2.38-1.29-.43-2.69-.67-4.13-.67-.53,0-1.06.03-1.58.09l-.64.07-.29.57c-.29.56-.47,1.13-.59,1.71-1.1-.37-2.29-.57-3.52-.57-.44,0-.88.02-1.31.07l-.37.04c-3.7-2.74-6.64-6.24-8.31-10.09ZM90.41,126.24c-2.15.08-4.17-.59-5.48-1.8-1.13-1.05-1.54-2.38-1.17-3.64,1.38-.05,2.69.21,3.81.73.28,1.48,1.06,2.89,2.34,4.08.17.16.35.3.53.44-.02.06-.02.13-.04.2ZM91.56,123.84c-1.52-1.42-2.04-3.21-1.44-4.9.21-.01.41-.02.62-.02,1.2,0,2.35.2,3.4.55-.07.43-.12.86-.12,1.3,0,1.87.66,3.65,1.81,5.13-1.68-.33-3.18-1.04-4.28-2.06ZM99.48,126.08h-.06c-1.9-1.22-3.06-3.2-3.06-5.31s1.17-4.11,3.09-5.33c1.92,1.22,3.09,3.21,3.09,5.33s-1.16,4.08-3.06,5.31ZM107.34,123.84c-1.1,1.02-2.6,1.73-4.27,2.06,1.15-1.48,1.81-3.26,1.81-5.13,0-.44-.04-.87-.11-1.3,1.05-.35,2.2-.55,3.4-.55.21,0,.41,0,.62.02.6,1.69.08,3.49-1.44,4.9ZM113.96,124.44c-1.24,1.15-3.11,1.81-5.13,1.81-.12,0-.23,0-.34,0-.02-.06-.02-.13-.04-.19.18-.15.37-.29.54-.45,1.28-1.19,2.06-2.61,2.34-4.09,1.12-.51,2.44-.77,3.81-.72.38,1.26-.04,2.58-1.17,3.64ZM116.35,118.49l-.26-.03c-.43-.05-.87-.07-1.31-.07-1.23,0-2.43.2-3.52.57-.12-.58-.31-1.15-.59-1.71l-.3-.57-.64-.07c-.52-.06-1.05-.09-1.58-.09-1.45,0-2.84.24-4.13.67-.42-.87-.99-1.67-1.69-2.38.01-.01.02-.02.04-.03.39-.34.8-.65,1.21-.96.26-.19.51-.4.77-.58.47-.33.96-.64,1.45-.94.22-.14.44-.29.66-.42.72-.41,1.45-.8,2.21-1.15,1.11-.35,2.22-.78,3.3-1.27,2.62-.82,5.36-1.23,8.12-1.23,1.17,0,3.16.07,4.68.2-1.86,3.9-4.81,7.38-8.42,10.08Z"/>
      <g>
        <path d="M110.56,120.7s.02,0,.03-.02c0,0-.02,0-.03.01h0Z"/>
        <path d="M227.73,101.12l35.66-34.56c.79-.77.81-2.04.04-2.83-.77-.79-2.03-.81-2.83-.04l-61.61,59.69v-58.26c0-1.1-.9-2-2-2s-2,.9-2,2v58.26l-61.61-59.69s-.07-.05-.11-.08c-.06-.05-.12-.11-.19-.15-.05-.03-.1-.06-.15-.08-.06-.03-.12-.07-.19-.1-.06-.02-.12-.04-.18-.06-.06-.02-.13-.04-.19-.05-.08-.01-.15-.02-.23-.02-.05,0-.1-.01-.15-.01h-.02c-.09,0-.17.02-.26.03-.05,0-.09,0-.13.01-.07.02-.14.04-.21.07-.05.02-.11.03-.16.05-.03.01-.05.03-.08.04-.09.04-.18.09-.26.14-.03.02-.06.05-.09.07-.08.06-.15.11-.21.18,0,0,0,0-.01.01-.03.03-.05.07-.09.11-.05.06-.1.12-.15.19-.04.05-.06.11-.09.17-.03.06-.06.12-.09.18-.03.06-.04.13-.06.2-.02.06-.04.12-.05.18-.01.08-.02.16-.02.24,0,.05-.01.09-.01.14v20.46c-4.04-13-16.19-22.46-30.5-22.46s-26.46,9.47-30.5,22.47v-20.44h0v-.03s0-.08-.01-.11c0-.09,0-.18-.03-.27,0-.06-.03-.11-.05-.17-.02-.07-.04-.14-.06-.21-.02-.06-.05-.11-.09-.17-.03-.06-.06-.12-.1-.18-.04-.06-.09-.12-.14-.18-.03-.04-.06-.08-.1-.12,0,0,0,0-.01,0-.06-.06-.13-.12-.21-.17-.03-.03-.06-.06-.1-.08-.08-.05-.16-.09-.25-.13-.03-.01-.06-.04-.09-.05,0,0,0,0,0,0-.12-.05-.24-.09-.36-.11-.04,0-.07,0-.11-.01-.09-.01-.19-.03-.29-.03,0,0,0,0-.01,0-.05,0-.09.01-.14.01-.08,0-.16,0-.24.02-.06.01-.12.03-.19.05-.06.02-.12.03-.19.06-.06.03-.12.06-.18.09-.05.03-.11.05-.16.09-.06.04-.12.09-.18.15-.04.03-.08.06-.11.09l-31.11,30.24L3.4,63.69s-.1-.08-.14-.11c-.05-.04-.1-.08-.15-.12-.06-.04-.13-.07-.19-.11-.05-.03-.1-.05-.15-.08-.07-.03-.15-.05-.23-.07-.05-.01-.1-.03-.15-.04-.09-.02-.19-.02-.29-.03-.03,0-.06,0-.1,0,0,0,0,0,0,0-.12,0-.23.01-.35.04-.01,0-.03,0-.05,0-.12.03-.24.06-.36.11-.13.05-.25.12-.36.19,0,0,0,0,0,0-.11.07-.21.16-.3.25,0,0,0,0,0,0-.02.02-.03.04-.04.06-.07.08-.14.16-.2.25-.03.04-.04.08-.06.11-.04.08-.09.15-.12.24-.02.04-.03.09-.04.13-.03.08-.05.16-.07.24,0,.05,0,.1-.01.15,0,.07-.02.14-.02.22v71.99c0,1.1.9,2,2,2s2-.9,2-2v-67.26l29.11,28.29c.39.38.89.57,1.39.57s1.01-.19,1.39-.57l29.11-28.29v58.93c0,1.1.89,0,2,0s2,1.11,2,0v-24.33c2.28,7.35,7.13,13.59,13.51,17.61v-2.31s1.82-.39,3.42-.3c-8.56-4.78-14.37-13.92-14.37-24.41,0-15.4,12.53-27.93,27.93-27.93s27.93,12.53,27.93,27.93c0,10.64-5.98,19.91-14.76,24.62,1.13-.41,2.46-.66,3.28-.02.97.76,1.03,1.6.91,2.17,6.2-4.03,10.9-10.16,13.14-17.36v24.88h4v-59.51l61,59.1v8.16c0,1.1.89,2,2,2s2-.9,2-2v-7.93c.05-.11.09-.23.12-.35l25.73-24.93,35.76,34.65c.39.38.89.56,1.39.56s1.04-.2,1.44-.61c.77-.79.75-2.06-.04-2.83l-35.66-34.56Z"/>
      </g>
    </g>
  </g>
</svg>