<svg width="132" height="142" viewBox="0 0 132 142" fill="none" xmlns="http://www.w3.org/2000/svg">
<path d="M128.847 86.9492C125.277 86.3556 117.927 86.0232 113.983 86.0232C111.627 86.0232 109.293 86.1894 106.96 86.4268C107.007 85.5958 107.053 84.7411 107.053 83.91C107.053 59.1692 93.2633 38.4172 74.83 33.0749C76.2533 30.8905 77.4433 28.4211 78.3533 25.928C80.3367 24.9071 81.69 22.319 81.9467 20.7282C82.2267 19.0187 81.5967 17.3091 80.3833 16.1932C80.3833 16.1219 80.3833 16.027 80.3833 15.9557C80.3833 7.17058 73.3367 0 64.7033 0C56.07 0 49.0233 7.14684 49.0233 15.9557V16.1694C47.7867 17.2854 47.1567 18.9949 47.4367 20.7282C47.6933 22.2478 49 24.9308 51.0533 25.928C52.01 28.5636 53.2933 31.2229 54.8333 33.4785C37.0767 39.4144 23.94 59.739 23.94 83.8863C23.94 84.6936 23.9633 85.5008 24.01 86.3081C21.91 86.1182 19.7633 85.9995 17.6167 85.9995C13.72 85.9995 6.44001 86.3081 2.87001 86.9255L0 87.4241L0.980014 90.2021C4.94668 101.575 13.1833 111.88 23.73 119.692C22.4467 124.607 23.9633 129.783 28.1167 133.677C32.0367 137.381 37.8 139.518 43.9367 139.518C44.9633 139.518 45.99 139.446 46.9933 139.328H47.25V141.156H84.3967V139.28H84.6533C85.6567 139.423 86.6833 139.494 87.71 139.494C93.8467 139.494 99.61 137.357 103.53 133.653C107.707 129.688 109.247 124.44 107.847 119.454C118.02 111.785 126.163 101.694 130.713 90.2733L131.857 87.4003L128.847 86.9017V86.9492ZM102.2 83.91C102.2 84.9785 102.153 86.0469 102.107 87.1154C99.1667 87.6378 96.2733 88.3263 93.4267 89.2286L93.1467 89.3473C90.72 90.487 88.2234 91.4605 85.7033 92.2678C79.5433 94.2385 73.1267 95.2357 66.5933 95.2357C65.1233 95.2357 63.6533 95.1645 62.2067 95.0695C84.0467 85.5958 93.7767 66.3397 96.7167 59.1691C100.17 66.3872 102.2 74.8399 102.2 83.9338V83.91ZM93.8 53.8268C93.4967 54.1117 93.24 54.4442 93.1 54.8715C93.0067 55.1802 83.2533 84.6223 52.92 93.1225C78.4933 80.6096 86.7533 56.5336 89.0167 47.6297C90.7667 49.5055 92.3767 51.5712 93.8 53.8268ZM79.52 40.2455C81.3867 41.2427 83.1367 42.4536 84.84 43.807C84.1633 47.2498 78.0033 74.555 51.8933 88.0889C73.8734 72.1094 78.54 48.8407 79.52 40.2455ZM54.6233 21.0843L53.0833 21.3218C52.7567 20.9656 52.36 20.2533 52.3134 19.8497L54.18 19.2323L53.9933 17.2379C53.9467 16.7868 53.9233 16.3356 53.9233 15.932C53.9233 9.87735 58.7767 4.93868 64.7033 4.93868C70.2333 4.93868 74.7367 9.18878 75.3667 14.6498C70.8867 14.5786 67.5967 15.742 65.5667 18.1639C62.7433 21.583 63.7233 26.023 63.77 26.213C64.0033 27.2577 64.9133 27.9463 65.9167 27.9463C66.08 27.9463 66.2667 27.9463 66.43 27.875C67.62 27.5901 68.3667 26.3792 68.0867 25.1683C68.0867 25.1683 67.5967 22.7227 68.95 21.0606C70.0467 19.731 72.2633 19.1136 75.25 19.1611V19.2323L77.0933 19.8497C77.0467 20.2296 76.6267 20.9419 76.3 21.2743L74.76 21.0606L74.1067 23.0313C71.8433 29.9882 67.8533 35.0219 64.6567 35.0219C61.46 35.0219 57.47 29.9645 55.2067 23.0076L54.5533 21.0369L54.6233 21.0843ZM58.5667 37.6337C60.41 39.1295 62.4634 40.0555 64.7267 40.0555C67.1534 40.0555 69.3233 39.0108 71.26 37.325C72.45 37.5862 73.64 37.8711 74.8067 38.251C74.1767 44.9467 69.86 73.7477 41.1367 89.0149C40.88 89.1573 40.67 89.3473 40.4833 89.561H40.4367L40.0634 89.8222C36.47 88.5638 32.76 87.614 28.9567 86.9729C28.8867 85.952 28.8633 84.931 28.8633 83.91C28.8633 60.9499 41.6733 41.8363 58.5667 37.6337ZM6.72001 91.4605C10.2433 91.1281 14.91 90.9619 17.64 90.9619C24.85 90.9619 31.8267 92.1728 38.43 94.4759L39.62 94.9271C46.7133 97.5864 53.34 101.575 59.08 106.609C57.4467 108.295 56.1167 110.194 55.1133 112.26C52.1033 111.239 48.8367 110.669 45.4767 110.669C44.24 110.669 43.0033 110.74 41.79 110.883L40.2967 111.049L39.62 112.402C38.9433 113.732 38.5233 115.085 38.2433 116.463C35.6767 115.584 32.9 115.109 30.03 115.109C29.0033 115.109 27.9767 115.157 26.9733 115.275L26.11 115.37C17.4767 108.865 10.6167 100.554 6.72001 91.413V91.4605ZM44.73 133.795C39.7133 133.985 35 132.395 31.9433 129.522C29.3067 127.028 28.35 123.871 29.2133 120.879C32.4333 120.76 35.49 121.377 38.1033 122.612C38.7567 126.126 40.5767 129.474 43.5634 132.3C43.96 132.679 44.38 133.012 44.8 133.344C44.7533 133.487 44.7533 133.653 44.7067 133.819L44.73 133.795ZM47.4133 128.097C43.8667 124.725 42.6533 120.475 44.0533 116.463C44.5433 116.439 45.01 116.415 45.5 116.415C48.3 116.415 50.9833 116.89 53.4333 117.721C53.27 118.742 53.1533 119.763 53.1533 120.808C53.1533 125.248 54.6933 129.474 57.3767 132.988C53.4567 132.205 49.9567 130.519 47.39 128.097H47.4133ZM65.8933 133.415H65.7533C61.32 130.519 58.6133 125.818 58.6133 120.808C58.6133 115.798 61.3433 111.049 65.8233 108.152C70.3033 111.049 73.0333 115.774 73.0333 120.808C73.0333 125.841 70.3267 130.495 65.8933 133.415ZM84.2333 128.097C81.6667 130.519 78.1667 132.205 74.27 132.988C76.9533 129.474 78.4933 125.248 78.4933 120.808C78.4933 119.763 78.4 118.742 78.2367 117.721C80.6867 116.89 83.37 116.415 86.17 116.415C86.66 116.415 87.1267 116.415 87.6167 116.463C89.0167 120.475 87.8033 124.749 84.2567 128.097H84.2333ZM99.68 129.522C96.7867 132.252 92.4233 133.819 87.71 133.819C87.43 133.819 87.1733 133.819 86.9167 133.819C86.87 133.677 86.87 133.51 86.8233 133.368C87.2433 133.012 87.6867 132.679 88.0833 132.3C91.07 129.474 92.89 126.102 93.5434 122.588C96.1567 121.377 99.2367 120.76 102.433 120.879C103.32 123.871 102.34 127.005 99.7033 129.522H99.68ZM105.257 115.394L104.65 115.323C103.647 115.204 102.62 115.157 101.593 115.157C98.7233 115.157 95.9233 115.632 93.38 116.51C93.1 115.133 92.6567 113.78 92.0033 112.45L91.3034 111.096L89.81 110.93C88.5967 110.788 87.36 110.717 86.1233 110.717C82.74 110.717 79.4967 111.286 76.4867 112.307C75.5067 110.242 74.1767 108.342 72.5434 106.656C72.5667 106.633 72.59 106.609 72.6367 106.585C73.5467 105.778 74.5033 105.042 75.46 104.306C76.0667 103.855 76.65 103.356 77.2567 102.929C78.3533 102.145 79.4967 101.409 80.64 100.697C81.1534 100.364 81.6667 100.008 82.18 99.6995C83.86 98.726 85.5633 97.8 87.3367 96.969C89.9267 96.138 92.5167 95.117 95.0367 93.9536C101.15 92.0066 107.543 91.0331 113.983 91.0331C116.713 91.0331 121.357 91.1993 124.903 91.508C120.563 100.768 113.68 109.031 105.257 115.442V115.394Z" fill="#231F20"/>
</svg>
