<svg width="311" height="216" viewBox="0 0 311 216" fill="none" xmlns="http://www.w3.org/2000/svg">
<path d="M266.863 107.25C269.873 108.223 273.303 107.63 275.847 105.303C278.367 102.976 279.3 99.5808 278.647 96.4229C275.613 95.4494 272.183 96.043 269.687 98.3699C267.167 100.697 266.233 104.092 266.887 107.274L266.863 107.25Z" fill="black"/>
<path d="M263.993 102.288C264.717 99.1534 263.877 95.7106 261.403 93.3362C258.93 90.9619 255.523 90.2733 252.49 91.1756C251.767 94.3097 252.607 97.7525 255.08 100.127C257.553 102.501 260.96 103.19 263.993 102.288Z" fill="black"/>
<path d="M268.17 96.7316C270.9 95.0933 272.767 92.1016 272.743 88.635C272.743 85.1684 270.853 82.2005 268.1 80.5859C265.37 82.2242 263.503 85.2159 263.527 88.6825C263.527 92.149 265.417 95.117 268.147 96.7316H268.17Z" fill="black"/>
<path d="M278.39 152.909C281.937 149.656 284.177 144.979 284.177 139.779C284.177 133.249 280.607 127.29 275.077 124.227V111.381H258.51V124.227C252.98 127.29 249.41 133.249 249.41 139.779C249.41 145.002 251.65 149.68 255.197 152.909H3.5C1.56333 152.909 0 154.5 0 156.471V177.674C0 179.644 1.56333 181.235 3.5 181.235C3.5 181.235 32.7553 168.949 39.9233 181.235C46.3747 192.293 28.3033 211.888 28.3033 211.888C27.9067 212.292 27.6733 212.885 27.6733 213.574C27.6733 214.809 28.5133 215.83 29.54 215.83C30.5667 215.83 31.4067 214.832 31.4067 213.574C31.4067 213.503 31.4067 213.455 31.4067 213.408L49.7 181.259H260.703L278.973 213.408C278.973 213.408 278.973 213.527 278.973 213.574C278.973 214.809 279.813 215.83 280.84 215.83C281.867 215.83 282.707 214.832 282.707 213.574C282.707 212.909 282.45 212.316 282.077 211.888L270.457 181.235H306.88C308.817 181.235 310.38 179.644 310.38 177.674V156.471C310.38 154.5 308.817 152.909 306.88 152.909H278.39ZM263.223 129.854L265.51 128.999V118.504H268.077V128.999L270.363 129.854C274.447 131.374 277.177 135.362 277.177 139.755C277.177 145.596 272.51 150.321 266.793 150.321C261.077 150.321 256.41 145.572 256.41 139.755C256.41 135.339 259.14 131.374 263.223 129.854ZM303.333 174.112H7V160.032H303.333V174.112Z" fill="black"/>
<path d="M217.893 127.032C214.323 126.438 206.973 126.106 203.03 126.106C200.673 126.106 198.34 126.272 196.007 126.51C196.053 125.679 196.1 124.824 196.1 123.993C196.1 99.2518 182.31 78.4999 163.877 73.1576C165.3 70.9732 166.49 68.5038 167.4 66.0107C169.383 64.9897 170.737 62.4017 170.993 60.8109C171.273 59.1013 170.643 57.3918 169.43 56.2759C169.43 56.2046 169.43 56.1097 169.43 56.0384C169.43 47.2533 162.383 40.0827 153.75 40.0827C145.117 40.0827 138.07 47.2295 138.07 56.0384V56.2521C136.833 57.3681 136.203 59.0776 136.483 60.8109C136.74 62.3305 138.047 65.0135 140.1 66.0107C141.057 68.6463 142.34 71.3056 143.88 73.5612C126.123 79.4971 112.987 99.8217 112.987 123.969C112.987 124.776 113.01 125.584 113.057 126.391C110.957 126.201 108.81 126.082 106.663 126.082C102.767 126.082 95.4867 126.391 91.9167 127.008L89.0467 127.507L90.0267 130.285C93.9933 141.658 102.23 151.963 112.777 159.774C111.493 164.689 113.01 169.865 117.163 173.759C121.083 177.463 126.847 179.6 132.983 179.6C134.01 179.6 135.037 179.529 136.04 179.41H136.297V181.239H173.443V179.363H173.7C174.703 179.505 175.73 179.577 176.757 179.577C182.893 179.577 188.657 177.44 192.577 173.736C196.753 169.77 198.293 164.523 196.893 159.537C207.067 151.868 215.21 141.777 219.76 130.356L220.903 127.483L217.893 126.984V127.032ZM191.247 123.993C191.247 125.061 191.2 126.13 191.153 127.198C188.213 127.72 185.32 128.409 182.473 129.311L182.193 129.43C179.767 130.57 177.27 131.543 174.75 132.35C168.59 134.321 162.173 135.318 155.64 135.318C154.17 135.318 152.7 135.247 151.253 135.152C173.093 125.678 182.823 106.422 185.763 99.2518C189.217 106.47 191.247 114.923 191.247 124.016V123.993ZM182.847 93.9095C182.543 94.1944 182.287 94.5268 182.147 94.9542C182.053 95.2629 172.3 124.705 141.967 133.205C167.54 120.692 175.8 96.6163 178.063 87.7124C179.813 89.5882 181.423 91.6538 182.847 93.9095ZM168.567 80.3281C170.433 81.3254 172.183 82.5363 173.887 83.8897C173.21 87.3325 167.05 114.638 140.94 128.172C162.92 112.192 167.587 88.9233 168.567 80.3281ZM143.67 61.167L142.13 61.4045C141.803 61.0483 141.407 60.336 141.36 59.9324L143.227 59.315L143.04 57.3206C142.993 56.8694 142.97 56.4183 142.97 56.0147C142.97 49.96 147.823 45.0214 153.75 45.0214C159.28 45.0214 163.783 49.2715 164.413 54.7325C159.933 54.6613 156.643 55.8247 154.613 58.2466C151.79 61.6656 152.77 66.1057 152.817 66.2957C153.05 67.3404 153.96 68.029 154.963 68.029C155.127 68.029 155.313 68.0289 155.477 67.9577C156.667 67.6728 157.413 66.4619 157.133 65.251C157.133 65.251 156.643 62.8053 157.997 61.1433C159.093 59.8136 161.31 59.1963 164.297 59.2438V59.315L166.14 59.9324C166.093 60.3123 165.673 61.0246 165.347 61.357L163.807 61.1433L163.153 63.114C160.89 70.0709 156.9 75.1046 153.703 75.1046C150.507 75.1046 146.517 70.0472 144.253 63.0903L143.6 61.1195L143.67 61.167ZM147.613 77.7163C149.457 79.2122 151.51 80.1382 153.773 80.1382C156.2 80.1382 158.37 79.0935 160.307 77.4077C161.497 77.6689 162.687 77.9538 163.853 78.3337C163.223 85.0294 158.907 113.83 130.183 129.098C129.927 129.24 129.717 129.43 129.53 129.644H129.483L129.11 129.905C125.517 128.646 121.807 127.697 118.003 127.056C117.933 126.035 117.91 125.014 117.91 123.993C117.91 101.033 130.72 81.919 147.613 77.7163ZM95.7667 131.543C99.29 131.211 103.957 131.045 106.687 131.045C113.897 131.045 120.873 132.255 127.477 134.559L128.667 135.01C135.76 137.669 142.387 141.658 148.127 146.692C146.493 148.377 145.163 150.277 144.16 152.343C141.15 151.322 137.883 150.752 134.523 150.752C133.287 150.752 132.05 150.823 130.837 150.965L129.343 151.132L128.667 152.485C127.99 153.815 127.57 155.168 127.29 156.545C124.723 155.667 121.947 155.192 119.077 155.192C118.05 155.192 117.023 155.239 116.02 155.358L115.157 155.453C106.523 148.947 99.6634 140.637 95.7667 131.496V131.543ZM133.777 173.878C128.76 174.068 124.047 172.477 120.99 169.604C118.353 167.111 117.397 163.953 118.26 160.962C121.48 160.843 124.537 161.46 127.15 162.695C127.803 166.209 129.623 169.557 132.61 172.382C133.007 172.762 133.427 173.095 133.847 173.427C133.8 173.569 133.8 173.736 133.753 173.902L133.777 173.878ZM136.46 168.18C132.913 164.808 131.7 160.558 133.1 156.545C133.59 156.521 134.057 156.498 134.547 156.498C137.347 156.498 140.03 156.973 142.48 157.804C142.317 158.825 142.2 159.846 142.2 160.89C142.2 165.33 143.74 169.557 146.423 173.071C142.503 172.287 139.003 170.601 136.437 168.18H136.46ZM154.94 173.498H154.8C150.367 170.601 147.66 165.9 147.66 160.89C147.66 155.88 150.39 151.132 154.87 148.235C159.35 151.132 162.08 155.857 162.08 160.89C162.08 165.924 159.373 170.578 154.94 173.498ZM173.28 168.18C170.713 170.601 167.213 172.287 163.317 173.071C166 169.557 167.54 165.33 167.54 160.89C167.54 159.846 167.447 158.825 167.283 157.804C169.733 156.973 172.417 156.498 175.217 156.498C175.707 156.498 176.173 156.498 176.663 156.545C178.063 160.558 176.85 164.832 173.303 168.18H173.28ZM188.727 169.604C185.833 172.335 181.47 173.902 176.757 173.902C176.477 173.902 176.22 173.902 175.963 173.902C175.917 173.759 175.917 173.593 175.87 173.451C176.29 173.095 176.733 172.762 177.13 172.382C180.117 169.557 181.937 166.185 182.59 162.671C185.203 161.46 188.283 160.843 191.48 160.962C192.367 163.953 191.387 167.087 188.75 169.604H188.727ZM194.303 155.477L193.697 155.406C192.693 155.287 191.667 155.239 190.64 155.239C187.77 155.239 184.97 155.714 182.427 156.593C182.147 155.216 181.703 153.862 181.05 152.533L180.35 151.179L178.857 151.013C177.643 150.87 176.407 150.799 175.17 150.799C171.787 150.799 168.543 151.369 165.533 152.39C164.553 150.324 163.223 148.425 161.59 146.739C161.613 146.715 161.637 146.692 161.683 146.668C162.593 145.861 163.55 145.125 164.507 144.388C165.113 143.937 165.697 143.439 166.303 143.011C167.4 142.228 168.543 141.492 169.687 140.779C170.2 140.447 170.713 140.091 171.227 139.782C172.907 138.809 174.61 137.883 176.383 137.052C178.973 136.221 181.563 135.2 184.083 134.036C190.197 132.089 196.59 131.116 203.03 131.116C205.76 131.116 210.403 131.282 213.95 131.591C209.61 140.851 202.727 149.113 194.303 155.524V155.477Z" fill="#231F20"/>
<path d="M180.973 136.668C180.973 136.668 181.02 136.668 181.043 136.621C181.043 136.621 180.996 136.621 180.973 136.644V136.668Z" fill="black"/>
</svg>
